<svg xmlns="http://www.w3.org/2000/svg" xmlns:xlink="http://www.w3.org/1999/xlink" width="100" zoomAndPan="magnify" viewBox="0 0 75 74.999997" height="100" preserveAspectRatio="xMidYMid meet" version="1.0"><rect x="-7.5" width="90" fill="#ffffff" y="-7.5" height="89.999996" fill-opacity="1"/><rect x="-7.5" width="90" fill="#ffffff" y="-7.5" height="89.999996" fill-opacity="1"/><path fill="#f5f5f5" d="M 52.339844 48.304688 C 52.339844 48.753906 51.976562 49.117188 51.53125 49.117188 L 41.4375 49.117188 C 40.988281 49.117188 40.625 48.753906 40.625 48.304688 L 40.625 39.039062 C 40.625 38.589844 40.261719 38.226562 39.8125 38.226562 L 35.1875 38.226562 C 34.742188 38.226562 34.378906 38.589844 34.378906 39.039062 L 34.378906 48.304688 C 34.378906 48.753906 34.015625 49.117188 33.566406 49.117188 L 23.472656 49.117188 C 23.027344 49.117188 22.660156 48.753906 22.660156 48.304688 L 22.660156 35.054688 C 22.660156 34.835938 22.75 34.625 22.910156 34.472656 L 36.9375 20.9375 C 37.253906 20.632812 37.75 20.632812 38.066406 20.9375 L 52.09375 34.472656 C 52.253906 34.625 52.339844 34.835938 52.339844 35.054688 Z M 37.503906 6.613281 C 20.441406 6.613281 6.613281 20.441406 6.613281 37.5 C 6.613281 54.5625 20.441406 68.390625 37.503906 68.390625 C 54.5625 68.390625 68.390625 54.5625 68.390625 37.5 C 68.390625 20.441406 54.5625 6.613281 37.503906 6.613281 " fill-opacity="1" fill-rule="nonzero"/><path fill="#f5f5f5" d="M 37.503906 73.152344 C 17.84375 73.152344 1.851562 57.160156 1.851562 37.5 C 1.851562 17.84375 17.84375 1.851562 37.503906 1.851562 C 57.160156 1.851562 73.152344 17.84375 73.152344 37.5 C 73.152344 57.160156 57.160156 73.152344 37.503906 73.152344 Z M 64.019531 10.984375 C 60.574219 7.539062 56.566406 4.835938 52.101562 2.945312 C 47.476562 0.992188 42.5625 0 37.503906 0 C 32.441406 0 27.527344 0.992188 22.90625 2.945312 C 18.4375 4.835938 14.425781 7.539062 10.984375 10.984375 C 7.539062 14.425781 4.835938 18.4375 2.949219 22.902344 C 0.992188 27.527344 0 32.4375 0 37.5 C 0 42.5625 0.992188 47.476562 2.949219 52.097656 C 4.835938 56.566406 7.539062 60.574219 10.984375 64.019531 C 14.425781 67.464844 18.4375 70.167969 22.90625 72.054688 C 27.527344 74.011719 32.441406 75.003906 37.503906 75.003906 C 42.5625 75.003906 47.476562 74.011719 52.101562 72.054688 C 56.566406 70.167969 60.574219 67.464844 64.019531 64.019531 C 67.464844 60.574219 70.167969 56.566406 72.054688 52.097656 C 74.011719 47.476562 75.003906 42.5625 75.003906 37.5 C 75.003906 32.4375 74.011719 27.527344 72.054688 22.902344 C 70.167969 18.4375 67.464844 14.425781 64.019531 10.984375 " fill-opacity="1" fill-rule="nonzero"/></svg>