<svg xmlns="http://www.w3.org/2000/svg" xmlns:xlink="http://www.w3.org/1999/xlink" width="500" zoomAndPan="magnify" viewBox="0 0 375 374.999991" height="500" preserveAspectRatio="xMidYMid meet" version="1.0"><defs><g/><clipPath id="9609c09ae2"><path d="M 56.074219 18.1875 L 318 18.1875 L 318 293.4375 L 56.074219 293.4375 Z M 56.074219 18.1875 " clip-rule="nonzero"/></clipPath><clipPath id="a3ae5081e2"><path d="M 103.761719 75.28125 L 267 75.28125 L 267 237.183594 L 103.761719 237.183594 Z M 103.761719 75.28125 " clip-rule="nonzero"/></clipPath><clipPath id="c0df0238dc"><path d="M 185.445312 75.28125 C 140.332031 75.28125 103.761719 111.523438 103.761719 156.230469 C 103.761719 200.9375 140.332031 237.183594 185.445312 237.183594 C 230.558594 237.183594 267.128906 200.9375 267.128906 156.230469 C 267.128906 111.523438 230.558594 75.28125 185.445312 75.28125 Z M 185.445312 75.28125 " clip-rule="nonzero"/></clipPath><clipPath id="6fa4e365e0"><path d="M 110.445312 80.988281 L 260.445312 80.988281 L 260.445312 230.988281 L 110.445312 230.988281 Z M 110.445312 80.988281 " clip-rule="nonzero"/></clipPath></defs><g clip-path="url(#9609c09ae2)"><path fill="#000000" d="M 93.179688 62.59375 C 88.394531 62.972656 84.085938 65.234375 81.042969 68.964844 C 71.128906 81.113281 63.429688 94.71875 58.160156 109.402344 C 56.578125 113.8125 56.851562 118.566406 58.929688 122.789062 C 61.027344 127.054688 64.671875 130.203125 69.195312 131.664062 L 80.074219 135.171875 C 87.039062 137.511719 88.84375 140.132812 88.84375 147.929688 L 88.84375 161.980469 C 88.84375 168.144531 86.003906 172.222656 79.914062 174.789062 L 68.585938 178.519531 C 64.132812 179.984375 60.535156 183.105469 58.449219 187.300781 C 56.382812 191.46875 56.074219 196.179688 57.582031 200.5625 C 62.722656 215.503906 70.363281 229.355469 80.289062 241.730469 C 83.285156 245.464844 87.730469 247.828125 92.492188 248.207031 C 97.296875 248.59375 101.910156 247.023438 105.484375 243.792969 L 115.234375 234.980469 C 120.730469 230.125 123.902344 229.875 130.65625 233.757812 L 142.8125 240.785156 C 148.144531 243.863281 150.261719 248.363281 149.457031 254.933594 L 146.339844 269.933594 C 145.398438 274.46875 146.28125 279.097656 148.828125 282.96875 C 151.394531 286.867188 155.332031 289.53125 159.921875 290.46875 C 168.949219 292.3125 178.25 293.25 187.558594 293.25 C 194.542969 293.25 201.5625 292.71875 208.425781 291.671875 C 213.121094 290.953125 217.359375 288.300781 220.0625 284.386719 C 222.765625 280.46875 223.746094 275.550781 222.746094 270.894531 L 219.21875 254.4375 C 217.765625 247.234375 219.136719 244.363281 225.902344 240.476562 L 238.054688 233.453125 C 243.335938 230.402344 248.425781 230.835938 253.597656 234.777344 L 267.191406 246.90625 C 270.703125 250.039062 275.21875 251.589844 279.910156 251.28125 C 284.570312 250.96875 288.808594 248.855469 291.839844 245.324219 C 302.832031 232.53125 311.28125 218.039062 316.949219 202.246094 C 318.550781 197.78125 318.28125 192.980469 316.191406 188.726562 C 314.101562 184.476562 310.46875 181.332031 305.960938 179.875 L 288.089844 174.101562 C 281.125 171.761719 279.320312 169.136719 279.320312 161.339844 L 279.320312 147.3125 C 279.320312 141.132812 282.15625 137.050781 288.246094 134.480469 L 305.019531 128.949219 C 309.511719 127.46875 313.25 124.167969 315.273438 119.890625 C 317.320312 115.558594 317.5 110.714844 315.773438 106.25 C 309.789062 90.753906 301.113281 76.605469 289.988281 64.1875 C 286.914062 60.753906 282.675781 58.730469 278.058594 58.484375 C 273.414062 58.238281 268.949219 59.824219 265.496094 62.941406 L 252.929688 74.292969 C 247.421875 79.15625 244.25 79.40625 237.503906 75.511719 L 225.347656 68.488281 C 220.015625 65.40625 217.902344 60.90625 218.703125 54.335938 L 221.589844 40.449219 C 222.5625 35.773438 221.542969 30.847656 218.800781 26.9375 C 216.070312 23.046875 211.8125 20.433594 207.125 19.765625 C 200.683594 18.84375 194.101562 18.378906 187.558594 18.378906 C 178.1875 18.378906 168.808594 19.332031 159.691406 21.21875 C 155.089844 22.167969 151.148438 24.847656 148.589844 28.769531 C 146.054688 32.660156 145.191406 37.304688 146.160156 41.84375 L 148.941406 54.832031 C 150.390625 62.039062 149.019531 64.914062 142.265625 68.816406 L 130.109375 75.820312 C 124.828125 78.867188 119.742188 78.441406 114.558594 74.511719 L 106.066406 66.933594 C 102.507812 63.757812 97.929688 62.21875 93.179688 62.59375 Z M 108.285156 82.378906 C 116.738281 88.886719 126.277344 89.652344 135.132812 84.535156 L 147.292969 77.53125 C 157.777344 71.472656 161.113281 64.324219 158.789062 52.789062 L 156 39.738281 C 155.59375 37.839844 155.953125 35.894531 157.015625 34.265625 C 158.097656 32.609375 159.769531 31.472656 161.722656 31.070312 C 170.175781 29.324219 178.867188 28.4375 187.558594 28.4375 C 193.628906 28.4375 199.734375 28.871094 205.703125 29.722656 C 207.683594 30.007812 209.410156 31.070312 210.566406 32.71875 C 211.738281 34.386719 212.15625 36.40625 211.738281 38.40625 L 208.816406 52.488281 C 208.789062 52.609375 208.765625 52.738281 208.75 52.863281 C 207.378906 63.457031 211.484375 72.097656 220.316406 77.199219 L 232.472656 84.222656 C 242.957031 90.277344 250.8125 89.585938 259.628906 81.796875 L 272.238281 70.410156 C 273.691406 69.09375 275.570312 68.429688 277.527344 68.53125 C 279.453125 68.632812 281.21875 69.476562 282.496094 70.902344 C 292.808594 82.410156 300.847656 95.519531 306.390625 109.875 C 307.113281 111.742188 307.035156 113.773438 306.175781 115.585938 C 305.316406 117.410156 303.785156 118.765625 301.871094 119.394531 L 284.914062 124.988281 C 284.796875 125.027344 284.679688 125.070312 284.566406 125.117188 C 274.695312 129.199219 269.261719 137.082031 269.261719 147.3125 L 269.261719 161.339844 C 269.261719 173.449219 273.789062 179.910156 284.941406 183.65625 L 302.867188 189.449219 C 304.761719 190.058594 306.285156 191.378906 307.164062 193.164062 C 308.042969 194.953125 308.15625 196.96875 307.480469 198.847656 C 302.226562 213.480469 294.398438 226.910156 284.210938 238.769531 C 282.953125 240.234375 281.1875 241.113281 279.246094 241.242188 C 277.269531 241.375 275.367188 240.71875 273.890625 239.398438 L 260.15625 227.148438 C 260.070312 227.070312 259.980469 226.996094 259.886719 226.921875 C 251.441406 220.390625 241.902344 219.613281 233.023438 224.742188 L 220.878906 231.757812 C 210.378906 237.792969 207.042969 244.941406 209.371094 256.484375 L 212.910156 273.003906 C 213.335938 274.988281 212.933594 277 211.78125 278.671875 C 210.632812 280.335938 208.902344 281.421875 206.90625 281.726562 C 192.058594 283.992188 176.574219 283.605469 161.933594 280.609375 C 159.988281 280.210938 158.316406 279.085938 157.234375 277.4375 C 156.164062 275.816406 155.796875 273.878906 156.191406 271.980469 L 159.347656 256.785156 C 159.375 256.660156 159.394531 256.535156 159.410156 256.410156 C 160.785156 245.816406 156.675781 237.171875 147.84375 232.074219 L 135.679688 225.042969 C 131.027344 222.367188 126.894531 221.015625 122.96875 221.015625 C 118.039062 221.015625 113.429688 223.152344 108.53125 227.476562 L 98.738281 236.332031 C 97.238281 237.683594 95.304688 238.339844 93.296875 238.179688 C 91.257812 238.015625 89.421875 237.042969 88.136719 235.4375 C 78.9375 223.96875 71.859375 211.132812 67.09375 197.289062 C 66.46875 195.46875 66.597656 193.511719 67.460938 191.773438 C 68.339844 190.007812 69.855469 188.691406 71.730469 188.078125 L 83.246094 184.285156 C 83.363281 184.246094 83.480469 184.203125 83.597656 184.15625 C 93.464844 180.074219 98.902344 172.199219 98.902344 161.980469 L 98.902344 147.929688 C 98.902344 135.820312 94.375 129.359375 83.21875 125.617188 L 72.28125 122.089844 C 70.375 121.472656 68.839844 120.144531 67.957031 118.347656 C 67.09375 116.59375 66.976562 114.621094 67.632812 112.800781 C 72.511719 99.195312 79.644531 86.585938 88.835938 75.324219 C 90.125 73.742188 91.949219 72.785156 93.972656 72.625 C 95.960938 72.464844 97.878906 73.109375 99.367188 74.441406 L 108.003906 82.144531 C 108.09375 82.226562 108.1875 82.304688 108.285156 82.378906 Z M 108.285156 82.378906 " fill-opacity="1" fill-rule="nonzero"/></g><path fill="#000000" d="M 187.324219 233.066406 C 229.917969 233.066406 264.570312 198.410156 264.570312 155.8125 C 264.570312 113.21875 229.917969 78.5625 187.324219 78.5625 C 144.730469 78.5625 110.078125 113.21875 110.078125 155.8125 C 110.078125 198.410156 144.730469 233.066406 187.324219 233.066406 Z M 187.324219 88.625 C 224.371094 88.625 254.511719 118.765625 254.511719 155.8125 C 254.511719 192.863281 224.371094 223.003906 187.324219 223.003906 C 150.277344 223.003906 120.140625 192.863281 120.140625 155.8125 C 120.140625 118.765625 150.277344 88.625 187.324219 88.625 Z M 187.324219 88.625 " fill-opacity="1" fill-rule="nonzero"/><path fill="#000000" d="M 151.183594 154.554688 L 151.183594 172.808594 C 151.183594 182.421875 156.199219 187.199219 160.40625 189.515625 C 164.824219 191.949219 170.671875 193.082031 178.808594 193.082031 L 195.003906 193.082031 C 203.140625 193.082031 208.988281 191.949219 213.40625 189.515625 C 217.613281 187.199219 222.628906 182.421875 222.628906 172.808594 L 222.628906 154.554688 C 222.628906 154.511719 222.625 154.472656 222.625 154.429688 L 229.984375 151.121094 L 236.390625 169.714844 C 237.109375 171.796875 239.058594 173.105469 241.144531 173.105469 C 241.691406 173.105469 242.242188 173.019531 242.785156 172.832031 C 245.410156 171.925781 246.808594 169.0625 245.902344 166.4375 L 237.703125 142.636719 C 237.648438 142.476562 237.585938 142.324219 237.515625 142.175781 C 237.515625 142.171875 237.515625 142.167969 237.511719 142.164062 C 237.421875 141.964844 237.3125 141.777344 237.199219 141.59375 C 237.175781 141.554688 237.148438 141.519531 237.121094 141.480469 C 237.015625 141.316406 236.898438 141.160156 236.773438 141.015625 C 236.757812 140.996094 236.742188 140.976562 236.726562 140.957031 C 236.585938 140.796875 236.429688 140.644531 236.269531 140.5 C 236.234375 140.472656 236.199219 140.445312 236.167969 140.417969 C 236.023438 140.296875 235.878906 140.1875 235.722656 140.085938 C 235.691406 140.0625 235.65625 140.039062 235.621094 140.015625 C 235.441406 139.902344 235.253906 139.804688 235.0625 139.714844 C 235.042969 139.707031 235.027344 139.695312 235.007812 139.6875 L 188.96875 118.988281 C 187.65625 118.398438 186.15625 118.398438 184.84375 118.988281 L 138.804688 139.6875 C 136.996094 140.5 135.835938 142.292969 135.835938 144.273438 C 135.835938 146.253906 136.996094 148.050781 138.804688 148.863281 L 151.1875 154.429688 C 151.1875 154.472656 151.183594 154.511719 151.183594 154.554688 Z M 212.570312 172.808594 C 212.570312 177.976562 211.214844 183.023438 195.003906 183.023438 L 178.808594 183.023438 C 162.597656 183.023438 161.242188 177.976562 161.242188 172.808594 L 161.242188 158.949219 L 184.84375 169.558594 C 185.5 169.855469 186.203125 170.003906 186.90625 170.003906 C 187.609375 170.003906 188.3125 169.855469 188.96875 169.558594 L 212.570312 158.949219 Z M 186.90625 129.089844 L 220.679688 144.273438 L 186.90625 159.457031 L 153.132812 144.273438 Z M 186.90625 129.089844 " fill-opacity="1" fill-rule="nonzero"/><g clip-path="url(#a3ae5081e2)"><g clip-path="url(#c0df0238dc)"><path fill="#ffffff" d="M 103.761719 75.28125 L 266.925781 75.28125 L 266.925781 237.183594 L 103.761719 237.183594 Z M 103.761719 75.28125 " fill-opacity="1" fill-rule="nonzero"/></g></g><g clip-path="url(#6fa4e365e0)"><path fill="#00bf63" d="M 185.445312 221.71875 C 149.199219 221.71875 119.714844 192.230469 119.714844 155.988281 C 119.714844 119.742188 149.199219 90.257812 185.445312 90.257812 C 221.6875 90.257812 251.175781 119.742188 251.175781 155.988281 C 251.175781 192.230469 221.6875 221.71875 185.445312 221.71875 Z M 185.445312 80.988281 C 144.089844 80.988281 110.445312 114.632812 110.445312 155.988281 C 110.445312 197.34375 144.089844 230.988281 185.445312 230.988281 C 226.800781 230.988281 260.445312 197.34375 260.445312 155.988281 C 260.445312 114.632812 226.800781 80.988281 185.445312 80.988281 " fill-opacity="1" fill-rule="nonzero"/></g><path fill="#00bf63" d="M 177.050781 138.4375 C 177.660156 138.710938 178.300781 138.921875 178.976562 139.058594 C 185.648438 140.421875 192.953125 134.226562 195.292969 125.222656 C 197.390625 117.128906 194.765625 109.523438 189.371094 107.078125 C 188.761719 106.800781 188.117188 106.589844 187.441406 106.453125 C 180.769531 105.089844 173.464844 111.285156 171.128906 120.289062 C 169.027344 128.382812 171.652344 135.988281 177.050781 138.4375 " fill-opacity="1" fill-rule="nonzero"/><path fill="#00bf63" d="M 221.898438 143.3125 C 227.132812 135.621094 226.980469 126.046875 221.558594 121.921875 C 221.011719 121.503906 220.425781 121.160156 219.820312 120.882812 C 214.421875 118.4375 206.972656 121.472656 202.269531 128.386719 C 197.035156 136.078125 197.1875 145.652344 202.609375 149.777344 C 203.15625 150.191406 203.738281 150.539062 204.347656 150.816406 C 209.746094 153.261719 217.195312 150.222656 221.898438 143.3125 " fill-opacity="1" fill-rule="nonzero"/><path fill="#00bf63" d="M 150.058594 148.390625 C 151.636719 149.105469 153.363281 149.40625 155.144531 149.199219 C 161.507812 148.457031 166.15625 141.492188 165.523438 133.644531 C 165.074219 127.996094 162.011719 123.429688 157.957031 121.59375 C 156.378906 120.875 154.652344 120.574219 152.871094 120.78125 C 146.507812 121.523438 141.863281 128.488281 142.488281 136.335938 C 142.941406 141.984375 146.003906 146.550781 150.058594 148.390625 " fill-opacity="1" fill-rule="nonzero"/><path fill="#00bf63" d="M 233.390625 157.292969 C 232.371094 155.816406 231.007812 154.714844 229.429688 154 C 225.375 152.164062 219.921875 152.867188 215.375 156.25 C 209.058594 160.945312 206.882812 169.03125 210.515625 174.304688 C 211.53125 175.78125 212.898438 176.882812 214.472656 177.597656 C 218.527344 179.4375 223.984375 178.730469 228.53125 175.347656 C 234.847656 170.652344 237.023438 162.570312 233.390625 157.292969 " fill-opacity="1" fill-rule="nonzero"/><path fill="#00bf63" d="M 203.648438 177.777344 C 202.902344 176.011719 202.199219 174.144531 201.738281 172.269531 C 201.226562 170.25 200.855469 168.175781 200.59375 166.390625 L 200.394531 164.992188 C 200.199219 163.589844 199.953125 162.289062 199.753906 160.890625 C 199.382812 158.816406 198.980469 157.085938 198.339844 155.605469 C 197.269531 152.976562 195.636719 150.804688 193.433594 149.09375 C 192.03125 147.980469 190.398438 147.121094 188.820312 146.40625 C 187.335938 145.734375 185.722656 145.359375 184.070312 145.324219 C 182.078125 145.253906 180.101562 145.667969 177.851562 146.433594 C 176.558594 146.917969 175.078125 147.558594 173.507812 148.394531 C 171.9375 149.230469 170.46875 150.109375 168.996094 150.992188 L 168.144531 151.558594 C 166.242188 152.601562 164.25 153.839844 162.152344 154.792969 C 160.339844 155.640625 158.761719 156.234375 157.226562 156.726562 C 155.304688 157.285156 153.296875 158.042969 151.539062 159.03125 C 149.015625 160.386719 146.800781 162.121094 144.980469 164.035156 C 143.769531 165.390625 142.757812 166.839844 141.941406 168.375 C 141.214844 169.710938 140.644531 171.238281 140.355469 172.65625 C 139.492188 176.667969 140.023438 180.484375 142.097656 184.042969 C 143.296875 186.136719 144.914062 187.820312 147.09375 189.046875 C 147.347656 189.28125 147.542969 189.371094 147.839844 189.503906 L 148.039062 189.59375 C 148.136719 189.640625 148.234375 189.683594 148.433594 189.773438 L 148.828125 189.953125 C 148.925781 189.996094 149.023438 190.042969 149.125 190.089844 L 149.320312 190.175781 C 150.210938 190.582031 151.144531 190.886719 151.878906 191.097656 C 154.035156 191.601562 156.234375 192 158.234375 192.316406 L 158.335938 192.359375 C 160.191406 192.726562 162.097656 192.992188 163.910156 193.457031 C 164.644531 193.671875 165.625 193.878906 166.511719 194.28125 C 167.699219 194.820312 168.785156 195.3125 169.726562 195.859375 C 171.019531 196.683594 172.46875 197.695312 173.964844 198.851562 C 174.667969 199.40625 175.421875 200.109375 176.121094 200.664062 C 177.074219 201.453125 178.125 202.285156 179.175781 203.121094 C 180.226562 203.953125 181.378906 204.832031 182.761719 205.457031 L 185.128906 206.535156 C 185.328125 206.625 185.472656 206.570312 185.804688 206.363281 C 186.394531 206.632812 187.132812 206.847656 187.8125 206.917969 C 189.574219 207.238281 191.46875 207.265625 193.441406 206.847656 C 196.042969 206.363281 198.429688 205.300781 200.359375 203.675781 C 202.476562 201.894531 204.042969 199.75 205.15625 197.039062 C 205.726562 195.511719 206.191406 193.699219 206.316406 191.847656 C 206.574219 189.703125 206.492188 187.523438 206.015625 185.164062 C 205.582031 182.703125 204.808594 180.210938 203.648438 177.777344 " fill-opacity="1" fill-rule="nonzero"/><g fill="#000000" fill-opacity="1"><g transform="translate(98.514843, 338.899636)"><g><path d="M 3.359375 0.3125 C 2.722656 0.3125 2.207031 0.164062 1.8125 -0.125 C 1.425781 -0.414062 1.191406 -0.804688 1.109375 -1.296875 C 1.035156 -1.796875 1.132812 -2.347656 1.40625 -2.953125 L 11.953125 -26.359375 C 12.304688 -27.128906 12.726562 -27.679688 13.21875 -28.015625 C 13.707031 -28.347656 14.273438 -28.515625 14.921875 -28.515625 C 15.535156 -28.515625 16.085938 -28.347656 16.578125 -28.015625 C 17.066406 -27.679688 17.488281 -27.128906 17.84375 -26.359375 L 28.4375 -2.953125 C 28.726562 -2.347656 28.832031 -1.789062 28.75 -1.28125 C 28.675781 -0.769531 28.453125 -0.375 28.078125 -0.09375 C 27.703125 0.175781 27.207031 0.3125 26.59375 0.3125 C 25.851562 0.3125 25.273438 0.132812 24.859375 -0.21875 C 24.441406 -0.582031 24.078125 -1.132812 23.765625 -1.875 L 21.15625 -7.921875 L 23.3125 -6.515625 L 6.4375 -6.515625 L 8.59375 -7.921875 L 6.046875 -1.875 C 5.691406 -1.101562 5.328125 -0.546875 4.953125 -0.203125 C 4.585938 0.140625 4.054688 0.3125 3.359375 0.3125 Z M 14.84375 -22.640625 L 9.234375 -9.3125 L 8.203125 -10.59375 L 21.5625 -10.59375 L 20.5625 -9.3125 L 14.921875 -22.640625 Z M 14.84375 -22.640625 "/></g></g></g><g fill="#000000" fill-opacity="1"><g transform="translate(128.271883, 338.899636)"><g><path d="M 9.6875 0.40625 C 8.050781 0.40625 6.703125 0.101562 5.640625 -0.5 C 4.578125 -1.101562 3.785156 -2.003906 3.265625 -3.203125 C 2.742188 -4.398438 2.484375 -5.894531 2.484375 -7.6875 L 2.484375 -17.359375 C 2.484375 -18.210938 2.695312 -18.84375 3.125 -19.25 C 3.550781 -19.664062 4.160156 -19.875 4.953125 -19.875 C 5.753906 -19.875 6.375 -19.664062 6.8125 -19.25 C 7.257812 -18.84375 7.484375 -18.210938 7.484375 -17.359375 L 7.484375 -7.59375 C 7.484375 -6.207031 7.757812 -5.179688 8.3125 -4.515625 C 8.875 -3.847656 9.769531 -3.515625 11 -3.515625 C 12.332031 -3.515625 13.425781 -3.972656 14.28125 -4.890625 C 15.132812 -5.816406 15.5625 -7.039062 15.5625 -8.5625 L 15.5625 -17.359375 C 15.5625 -18.210938 15.773438 -18.84375 16.203125 -19.25 C 16.628906 -19.664062 17.242188 -19.875 18.046875 -19.875 C 18.835938 -19.875 19.453125 -19.664062 19.890625 -19.25 C 20.335938 -18.84375 20.5625 -18.210938 20.5625 -17.359375 L 20.5625 -2.234375 C 20.5625 -0.535156 19.75 0.3125 18.125 0.3125 C 17.34375 0.3125 16.738281 0.09375 16.3125 -0.34375 C 15.894531 -0.78125 15.6875 -1.410156 15.6875 -2.234375 L 15.6875 -5.28125 L 16.234375 -4.078125 C 15.679688 -2.640625 14.835938 -1.53125 13.703125 -0.75 C 12.566406 0.0195312 11.226562 0.40625 9.6875 0.40625 Z M 9.6875 0.40625 "/></g></g></g><g fill="#000000" fill-opacity="1"><g transform="translate(151.429585, 338.899636)"><g><path d="M 5.796875 0 C 4.921875 0 4.25 -0.234375 3.78125 -0.703125 C 3.3125 -1.171875 3.078125 -1.84375 3.078125 -2.71875 L 3.078125 -25.484375 C 3.078125 -26.359375 3.3125 -27.03125 3.78125 -27.5 C 4.25 -27.96875 4.921875 -28.203125 5.796875 -28.203125 L 13.5625 -28.203125 C 18.28125 -28.203125 21.925781 -26.988281 24.5 -24.5625 C 27.070312 -22.132812 28.359375 -18.65625 28.359375 -14.125 C 28.359375 -11.851562 28.03125 -9.84375 27.375 -8.09375 C 26.726562 -6.351562 25.769531 -4.878906 24.5 -3.671875 C 23.226562 -2.472656 21.679688 -1.5625 19.859375 -0.9375 C 18.035156 -0.3125 15.9375 0 13.5625 0 Z M 8.203125 -4.234375 L 13.234375 -4.234375 C 14.890625 -4.234375 16.320312 -4.441406 17.53125 -4.859375 C 18.75 -5.273438 19.765625 -5.890625 20.578125 -6.703125 C 21.390625 -7.515625 21.992188 -8.539062 22.390625 -9.78125 C 22.796875 -11.019531 23 -12.46875 23 -14.125 C 23 -17.425781 22.1875 -19.890625 20.5625 -21.515625 C 18.9375 -23.140625 16.492188 -23.953125 13.234375 -23.953125 L 8.203125 -23.953125 Z M 8.203125 -4.234375 "/></g></g></g><g fill="#000000" fill-opacity="1"><g transform="translate(181.906561, 338.899636)"><g><path d="M 5.078125 0.28125 C 4.273438 0.28125 3.660156 0.0390625 3.234375 -0.4375 C 2.804688 -0.914062 2.59375 -1.582031 2.59375 -2.4375 L 2.59375 -17.125 C 2.59375 -18 2.804688 -18.671875 3.234375 -19.140625 C 3.660156 -19.609375 4.273438 -19.84375 5.078125 -19.84375 C 5.878906 -19.84375 6.5 -19.609375 6.9375 -19.140625 C 7.375 -18.671875 7.59375 -18 7.59375 -17.125 L 7.59375 -2.4375 C 7.59375 -1.582031 7.378906 -0.914062 6.953125 -0.4375 C 6.523438 0.0390625 5.898438 0.28125 5.078125 0.28125 Z M 5.078125 -23.5625 C 4.148438 -23.5625 3.425781 -23.789062 2.90625 -24.25 C 2.382812 -24.71875 2.125 -25.367188 2.125 -26.203125 C 2.125 -27.054688 2.382812 -27.707031 2.90625 -28.15625 C 3.425781 -28.613281 4.148438 -28.84375 5.078125 -28.84375 C 6.035156 -28.84375 6.769531 -28.613281 7.28125 -28.15625 C 7.789062 -27.707031 8.046875 -27.054688 8.046875 -26.203125 C 8.046875 -25.367188 7.789062 -24.71875 7.28125 -24.25 C 6.769531 -23.789062 6.035156 -23.5625 5.078125 -23.5625 Z M 5.078125 -23.5625 "/></g></g></g><g fill="#000000" fill-opacity="1"><g transform="translate(192.105546, 338.899636)"><g><path d="M 11.71875 7.59375 C 10.28125 7.59375 8.882812 7.457031 7.53125 7.1875 C 6.1875 6.925781 4.96875 6.515625 3.875 5.953125 C 3.375 5.691406 3.035156 5.375 2.859375 5 C 2.679688 4.625 2.625 4.242188 2.6875 3.859375 C 2.757812 3.472656 2.921875 3.132812 3.171875 2.84375 C 3.429688 2.550781 3.75 2.347656 4.125 2.234375 C 4.5 2.128906 4.882812 2.1875 5.28125 2.40625 C 6.457031 2.988281 7.570312 3.363281 8.625 3.53125 C 9.675781 3.707031 10.570312 3.796875 11.3125 3.796875 C 13.101562 3.796875 14.445312 3.363281 15.34375 2.5 C 16.238281 1.632812 16.6875 0.347656 16.6875 -1.359375 L 16.6875 -4.953125 L 17.046875 -4.953125 C 16.640625 -3.597656 15.800781 -2.515625 14.53125 -1.703125 C 13.269531 -0.890625 11.835938 -0.484375 10.234375 -0.484375 C 8.472656 -0.484375 6.941406 -0.890625 5.640625 -1.703125 C 4.335938 -2.515625 3.320312 -3.648438 2.59375 -5.109375 C 1.875 -6.578125 1.515625 -8.285156 1.515625 -10.234375 C 1.515625 -11.703125 1.722656 -13.03125 2.140625 -14.21875 C 2.554688 -15.40625 3.144531 -16.425781 3.90625 -17.28125 C 4.664062 -18.132812 5.582031 -18.789062 6.65625 -19.25 C 7.738281 -19.71875 8.929688 -19.953125 10.234375 -19.953125 C 11.890625 -19.953125 13.335938 -19.546875 14.578125 -18.734375 C 15.816406 -17.921875 16.625 -16.847656 17 -15.515625 L 16.59375 -14.515625 L 16.59375 -17.359375 C 16.59375 -18.179688 16.8125 -18.804688 17.25 -19.234375 C 17.695312 -19.660156 18.304688 -19.875 19.078125 -19.875 C 19.878906 -19.875 20.492188 -19.660156 20.921875 -19.234375 C 21.347656 -18.804688 21.5625 -18.179688 21.5625 -17.359375 L 21.5625 -1.953125 C 21.5625 1.210938 20.71875 3.59375 19.03125 5.1875 C 17.351562 6.789062 14.914062 7.59375 11.71875 7.59375 Z M 11.59375 -4.28125 C 12.632812 -4.28125 13.53125 -4.519531 14.28125 -5 C 15.03125 -5.476562 15.609375 -6.164062 16.015625 -7.0625 C 16.429688 -7.957031 16.640625 -9.015625 16.640625 -10.234375 C 16.640625 -12.078125 16.1875 -13.523438 15.28125 -14.578125 C 14.375 -15.628906 13.144531 -16.15625 11.59375 -16.15625 C 10.5625 -16.15625 9.671875 -15.914062 8.921875 -15.4375 C 8.171875 -14.957031 7.585938 -14.273438 7.171875 -13.390625 C 6.765625 -12.515625 6.5625 -11.460938 6.5625 -10.234375 C 6.5625 -8.398438 7.015625 -6.945312 7.921875 -5.875 C 8.828125 -4.8125 10.050781 -4.28125 11.59375 -4.28125 Z M 11.59375 -4.28125 "/></g></g></g><g fill="#000000" fill-opacity="1"><g transform="translate(216.263142, 338.899636)"><g><path d="M 5.078125 0.28125 C 4.273438 0.28125 3.660156 0.0390625 3.234375 -0.4375 C 2.804688 -0.914062 2.59375 -1.582031 2.59375 -2.4375 L 2.59375 -17.125 C 2.59375 -18 2.804688 -18.671875 3.234375 -19.140625 C 3.660156 -19.609375 4.273438 -19.84375 5.078125 -19.84375 C 5.878906 -19.84375 6.5 -19.609375 6.9375 -19.140625 C 7.375 -18.671875 7.59375 -18 7.59375 -17.125 L 7.59375 -2.4375 C 7.59375 -1.582031 7.378906 -0.914062 6.953125 -0.4375 C 6.523438 0.0390625 5.898438 0.28125 5.078125 0.28125 Z M 5.078125 -23.5625 C 4.148438 -23.5625 3.425781 -23.789062 2.90625 -24.25 C 2.382812 -24.71875 2.125 -25.367188 2.125 -26.203125 C 2.125 -27.054688 2.382812 -27.707031 2.90625 -28.15625 C 3.425781 -28.613281 4.148438 -28.84375 5.078125 -28.84375 C 6.035156 -28.84375 6.769531 -28.613281 7.28125 -28.15625 C 7.789062 -27.707031 8.046875 -27.054688 8.046875 -26.203125 C 8.046875 -25.367188 7.789062 -24.71875 7.28125 -24.25 C 6.769531 -23.789062 6.035156 -23.5625 5.078125 -23.5625 Z M 5.078125 -23.5625 "/></g></g></g><g fill="#000000" fill-opacity="1"><g transform="translate(226.462127, 338.899636)"><g><path d="M 11.5625 0.40625 C 9.820312 0.40625 8.375 0.113281 7.21875 -0.46875 C 6.0625 -1.0625 5.203125 -1.925781 4.640625 -3.0625 C 4.078125 -4.195312 3.796875 -5.601562 3.796875 -7.28125 L 3.796875 -15.796875 L 1.71875 -15.796875 C 1.082031 -15.796875 0.585938 -15.960938 0.234375 -16.296875 C -0.109375 -16.628906 -0.28125 -17.09375 -0.28125 -17.6875 C -0.28125 -18.289062 -0.109375 -18.753906 0.234375 -19.078125 C 0.585938 -19.398438 1.082031 -19.5625 1.71875 -19.5625 L 3.796875 -19.5625 L 3.796875 -23.203125 C 3.796875 -24.023438 4.015625 -24.648438 4.453125 -25.078125 C 4.898438 -25.503906 5.519531 -25.71875 6.3125 -25.71875 C 7.113281 -25.71875 7.726562 -25.503906 8.15625 -25.078125 C 8.582031 -24.648438 8.796875 -24.023438 8.796875 -23.203125 L 8.796875 -19.5625 L 13.046875 -19.5625 C 13.679688 -19.5625 14.171875 -19.398438 14.515625 -19.078125 C 14.867188 -18.753906 15.046875 -18.289062 15.046875 -17.6875 C 15.046875 -17.09375 14.867188 -16.628906 14.515625 -16.296875 C 14.171875 -15.960938 13.679688 -15.796875 13.046875 -15.796875 L 8.796875 -15.796875 L 8.796875 -7.5625 C 8.796875 -6.28125 9.078125 -5.316406 9.640625 -4.671875 C 10.203125 -4.035156 11.109375 -3.71875 12.359375 -3.71875 C 12.816406 -3.71875 13.21875 -3.753906 13.5625 -3.828125 C 13.90625 -3.910156 14.210938 -3.96875 14.484375 -4 C 14.796875 -4.03125 15.054688 -3.929688 15.265625 -3.703125 C 15.484375 -3.472656 15.59375 -3.007812 15.59375 -2.3125 C 15.59375 -1.78125 15.503906 -1.304688 15.328125 -0.890625 C 15.160156 -0.484375 14.851562 -0.203125 14.40625 -0.046875 C 14.050781 0.0664062 13.59375 0.171875 13.03125 0.265625 C 12.476562 0.359375 11.988281 0.40625 11.5625 0.40625 Z M 11.5625 0.40625 "/></g></g></g><g fill="#000000" fill-opacity="1"><g transform="translate(241.8206, 338.899636)"><g><path d="M 9.046875 0.40625 C 7.628906 0.40625 6.363281 0.132812 5.25 -0.40625 C 4.144531 -0.957031 3.28125 -1.703125 2.65625 -2.640625 C 2.03125 -3.578125 1.71875 -4.628906 1.71875 -5.796875 C 1.71875 -7.234375 2.085938 -8.375 2.828125 -9.21875 C 3.578125 -10.0625 4.789062 -10.664062 6.46875 -11.03125 C 8.15625 -11.40625 10.410156 -11.59375 13.234375 -11.59375 L 15.234375 -11.59375 L 15.234375 -8.71875 L 13.28125 -8.71875 C 11.625 -8.71875 10.300781 -8.632812 9.3125 -8.46875 C 8.332031 -8.3125 7.632812 -8.039062 7.21875 -7.65625 C 6.800781 -7.269531 6.59375 -6.734375 6.59375 -6.046875 C 6.59375 -5.160156 6.898438 -4.4375 7.515625 -3.875 C 8.128906 -3.320312 8.984375 -3.046875 10.078125 -3.046875 C 10.960938 -3.046875 11.742188 -3.25 12.421875 -3.65625 C 13.097656 -4.070312 13.632812 -4.640625 14.03125 -5.359375 C 14.4375 -6.078125 14.640625 -6.90625 14.640625 -7.84375 L 14.640625 -12.4375 C 14.640625 -13.769531 14.34375 -14.726562 13.75 -15.3125 C 13.164062 -15.90625 12.179688 -16.203125 10.796875 -16.203125 C 10.023438 -16.203125 9.191406 -16.109375 8.296875 -15.921875 C 7.398438 -15.734375 6.460938 -15.410156 5.484375 -14.953125 C 4.972656 -14.710938 4.523438 -14.644531 4.140625 -14.75 C 3.753906 -14.863281 3.453125 -15.085938 3.234375 -15.421875 C 3.023438 -15.753906 2.921875 -16.117188 2.921875 -16.515625 C 2.921875 -16.921875 3.023438 -17.316406 3.234375 -17.703125 C 3.453125 -18.085938 3.8125 -18.375 4.3125 -18.5625 C 5.539062 -19.0625 6.722656 -19.414062 7.859375 -19.625 C 8.992188 -19.84375 10.023438 -19.953125 10.953125 -19.953125 C 12.878906 -19.953125 14.460938 -19.660156 15.703125 -19.078125 C 16.941406 -18.492188 17.867188 -17.609375 18.484375 -16.421875 C 19.097656 -15.234375 19.40625 -13.707031 19.40625 -11.84375 L 19.40625 -2.234375 C 19.40625 -1.410156 19.203125 -0.78125 18.796875 -0.34375 C 18.398438 0.09375 17.828125 0.3125 17.078125 0.3125 C 16.328125 0.3125 15.742188 0.09375 15.328125 -0.34375 C 14.921875 -0.78125 14.71875 -1.410156 14.71875 -2.234375 L 14.71875 -4.15625 L 15.046875 -4.15625 C 14.859375 -3.226562 14.488281 -2.421875 13.9375 -1.734375 C 13.394531 -1.054688 12.707031 -0.53125 11.875 -0.15625 C 11.050781 0.21875 10.109375 0.40625 9.046875 0.40625 Z M 9.046875 0.40625 "/></g></g></g><g fill="#000000" fill-opacity="1"><g transform="translate(263.69843, 338.899636)"><g><path d="M 9.28125 0.40625 C 7.0625 0.40625 5.390625 -0.226562 4.265625 -1.5 C 3.148438 -2.769531 2.59375 -4.628906 2.59375 -7.078125 L 2.59375 -26 C 2.59375 -26.820312 2.804688 -27.445312 3.234375 -27.875 C 3.660156 -28.300781 4.273438 -28.515625 5.078125 -28.515625 C 5.878906 -28.515625 6.5 -28.300781 6.9375 -27.875 C 7.375 -27.445312 7.59375 -26.820312 7.59375 -26 L 7.59375 -7.3125 C 7.59375 -6.09375 7.851562 -5.1875 8.375 -4.59375 C 8.894531 -4.007812 9.632812 -3.71875 10.59375 -3.71875 C 10.8125 -3.71875 11.015625 -3.722656 11.203125 -3.734375 C 11.390625 -3.753906 11.578125 -3.773438 11.765625 -3.796875 C 12.128906 -3.847656 12.378906 -3.75 12.515625 -3.5 C 12.648438 -3.25 12.71875 -2.734375 12.71875 -1.953125 C 12.71875 -1.285156 12.582031 -0.765625 12.3125 -0.390625 C 12.050781 -0.0234375 11.613281 0.195312 11 0.28125 C 10.726562 0.300781 10.445312 0.328125 10.15625 0.359375 C 9.863281 0.390625 9.570312 0.40625 9.28125 0.40625 Z M 9.28125 0.40625 "/></g></g></g></svg>